<?xml version="1.0" encoding="UTF-8" standalone="no"?>
<!DOCTYPE svg PUBLIC "-//W3C//DTD SVG 1.1//EN"
 "http://www.w3.org/Graphics/SVG/1.1/DTD/svg11.dtd">
<!-- Generated by graphviz version 15.1.0 (20260618.0150)
 -->
<!-- Title: task2_infrastructure Pages: 1 -->
<svg width="1070pt" height="392pt"
 viewBox="0.00 0.00 1070.00 392.00" xmlns="http://www.w3.org/2000/svg" xmlns:xlink="http://www.w3.org/1999/xlink">
<g id="graph0" class="graph" transform="scale(1 1) rotate(0) translate(4 387.75)">
<title>task2_infrastructure</title>
<polygon fill="white" stroke="none" points="-4,4 -4,-387.75 1065.88,-387.75 1065.88,4 -4,4"/>
<g id="clust1" class="cluster">
<title>cluster_vercel</title>
<path fill="none" stroke="#5c6f8a" d="M158,-237C158,-237 418,-237 418,-237 424,-237 430,-243 430,-249 430,-249 430,-300 430,-300 430,-306 424,-312 418,-312 418,-312 158,-312 158,-312 152,-312 146,-306 146,-300 146,-300 146,-249 146,-249 146,-243 152,-237 158,-237"/>
<text xml:space="preserve" text-anchor="middle" x="288" y="-294.7" font-family="Helvetica,sans-Serif" font-size="14.00">Vercel</text>
</g>
<g id="clust2" class="cluster">
<title>cluster_langsmith</title>
<path fill="none" stroke="#7a5c8a" d="M20,-8C20,-8 352,-8 352,-8 358,-8 364,-14 364,-20 364,-20 364,-187.5 364,-187.5 364,-193.5 358,-199.5 352,-199.5 352,-199.5 20,-199.5 20,-199.5 14,-199.5 8,-193.5 8,-187.5 8,-187.5 8,-20 8,-20 8,-14 14,-8 20,-8"/>
<text xml:space="preserve" text-anchor="middle" x="186" y="-182.2" font-family="Helvetica,sans-Serif" font-size="14.00">LangSmith Deployment</text>
</g>
<g id="clust3" class="cluster">
<title>cluster_render</title>
<path fill="none" stroke="#5c8a6b" d="M384,-12C384,-12 548,-12 548,-12 554,-12 560,-18 560,-24 560,-24 560,-75 560,-75 560,-81 554,-87 548,-87 548,-87 384,-87 384,-87 378,-87 372,-81 372,-75 372,-75 372,-24 372,-24 372,-18 378,-12 384,-12"/>
<text xml:space="preserve" text-anchor="middle" x="466" y="-69.7" font-family="Helvetica,sans-Serif" font-size="14.00">Render</text>
</g>
<!-- browser -->
<g id="node1" class="node">
<title>browser</title>
<path fill="#e8eef5" stroke="#5c6f8a" d="M321.88,-383.75C321.88,-383.75 254.12,-383.75 254.12,-383.75 248.12,-383.75 242.12,-377.75 242.12,-371.75 242.12,-371.75 242.12,-359.75 242.12,-359.75 242.12,-353.75 248.12,-347.75 254.12,-347.75 254.12,-347.75 321.88,-347.75 321.88,-347.75 327.88,-347.75 333.88,-353.75 333.88,-359.75 333.88,-359.75 333.88,-371.75 333.88,-371.75 333.88,-377.75 327.88,-383.75 321.88,-383.75"/>
<text xml:space="preserve" text-anchor="middle" x="288" y="-367.3" font-family="Helvetica,sans-Serif" font-size="11.00">Browser</text>
<text xml:space="preserve" text-anchor="middle" x="288" y="-355.3" font-family="Helvetica,sans-Serif" font-size="11.00">(phone / laptop)</text>
</g>
<!-- frontend -->
<g id="node2" class="node">
<title>frontend</title>
<path fill="#f5f0e8" stroke="#8a7a5c" d="M410,-281C410,-281 166,-281 166,-281 160,-281 154,-275 154,-269 154,-269 154,-257 154,-257 154,-251 160,-245 166,-245 166,-245 410,-245 410,-245 416,-245 422,-251 422,-257 422,-257 422,-269 422,-269 422,-275 416,-281 410,-281"/>
<text xml:space="preserve" text-anchor="middle" x="288" y="-264.55" font-family="Helvetica,sans-Serif" font-size="11.00">Next.js UI — blunderstanding.vercel.app</text>
<text xml:space="preserve" text-anchor="middle" x="288" y="-252.55" font-family="Helvetica,sans-Serif" font-size="11.00">API routes proxy server&#45;side (keys never in browser)</text>
</g>
<!-- browser&#45;&gt;frontend -->
<g id="edge1" class="edge">
<title>browser&#45;&gt;frontend</title>
<path fill="none" stroke="#6b5d45" d="M288,-347.66C288,-332.61 288,-310.38 288,-292.61"/>
<polygon fill="#6b5d45" stroke="#6b5d45" points="291.5,-292.69 288,-282.69 284.5,-292.69 291.5,-292.69"/>
<text xml:space="preserve" text-anchor="middle" x="302.62" y="-321.2" font-family="Helvetica,sans-Serif" font-size="9.00">HTTPS</text>
</g>
<!-- backend -->
<g id="node3" class="node">
<title>backend</title>
<path fill="#f5f0e8" stroke="#8a7a5c" d="M344,-168.5C344,-168.5 232,-168.5 232,-168.5 226,-168.5 220,-162.5 220,-156.5 220,-156.5 220,-144.5 220,-144.5 220,-138.5 226,-132.5 232,-132.5 232,-132.5 344,-132.5 344,-132.5 350,-132.5 356,-138.5 356,-144.5 356,-144.5 356,-156.5 356,-156.5 356,-162.5 350,-168.5 344,-168.5"/>
<text xml:space="preserve" text-anchor="middle" x="288" y="-152.05" font-family="Helvetica,sans-Serif" font-size="11.00">LangGraph Agent Server</text>
<text xml:space="preserve" text-anchor="middle" x="288" y="-140.05" font-family="Helvetica,sans-Serif" font-size="11.00">graphs: distillation + chat</text>
</g>
<!-- frontend&#45;&gt;backend -->
<g id="edge2" class="edge">
<title>frontend&#45;&gt;backend</title>
<path fill="none" stroke="#6b5d45" d="M288,-244.73C288,-227.46 288,-200.59 288,-180.12"/>
<polygon fill="#6b5d45" stroke="#6b5d45" points="291.5,-180.16 288,-170.16 284.5,-180.16 291.5,-180.16"/>
<text xml:space="preserve" text-anchor="middle" x="338.25" y="-218.45" font-family="Helvetica,sans-Serif" font-size="9.00">LangGraph SDK</text>
<text xml:space="preserve" text-anchor="middle" x="338.25" y="-208.7" font-family="Helvetica,sans-Serif" font-size="9.00">(upload / poll / chat SSE)</text>
</g>
<!-- store -->
<g id="node4" class="node">
<title>store</title>
<path fill="#eee8f5" stroke="#8a7a5c" d="M171.75,-56C171.75,-58.21 136.9,-60 94,-60 51.1,-60 16.25,-58.21 16.25,-56 16.25,-56 16.25,-20 16.25,-20 16.25,-17.79 51.1,-16 94,-16 136.9,-16 171.75,-17.79 171.75,-20 171.75,-20 171.75,-56 171.75,-56"/>
<path fill="none" stroke="#8a7a5c" d="M171.75,-56C171.75,-53.79 136.9,-52 94,-52 51.1,-52 16.25,-53.79 16.25,-56"/>
<text xml:space="preserve" text-anchor="middle" x="94" y="-39.55" font-family="Helvetica,sans-Serif" font-size="11.00">LangGraph Store</text>
<text xml:space="preserve" text-anchor="middle" x="94" y="-27.55" font-family="Helvetica,sans-Serif" font-size="11.00">(persistent Lessons per user)</text>
</g>
<!-- backend&#45;&gt;store -->
<g id="edge7" class="edge">
<title>backend&#45;&gt;store</title>
<path fill="none" stroke="#6b5d45" d="M257.69,-132.23C226.52,-114.48 177.54,-86.58 141.27,-65.93"/>
<polygon fill="#6b5d45" stroke="#6b5d45" points="143.14,-62.96 132.72,-61.05 139.68,-69.05 143.14,-62.96"/>
</g>
<!-- traces -->
<g id="node5" class="node">
<title>traces</title>
<path fill="#eee8f5" stroke="#8a7a5c" d="M344.38,-56C344.38,-56 201.62,-56 201.62,-56 195.62,-56 189.62,-50 189.62,-44 189.62,-44 189.62,-32 189.62,-32 189.62,-26 195.62,-20 201.62,-20 201.62,-20 344.38,-20 344.38,-20 350.38,-20 356.38,-26 356.38,-32 356.38,-32 356.38,-44 356.38,-44 356.38,-50 350.38,-56 344.38,-56"/>
<text xml:space="preserve" text-anchor="middle" x="273" y="-33.55" font-family="Helvetica,sans-Serif" font-size="11.00">LangSmith tracing &amp; monitoring</text>
</g>
<!-- backend&#45;&gt;traces -->
<g id="edge8" class="edge">
<title>backend&#45;&gt;traces</title>
<path fill="none" stroke="#6b5d45" stroke-dasharray="5,2" d="M285.66,-132.23C283.3,-114.88 279.63,-87.84 276.85,-67.34"/>
<polygon fill="#6b5d45" stroke="#6b5d45" points="280.34,-67.08 275.53,-57.64 273.41,-68.02 280.34,-67.08"/>
</g>
<!-- engine -->
<g id="node6" class="node">
<title>engine</title>
<path fill="#f5f0e8" stroke="#8a7a5c" d="M540,-56C540,-56 392,-56 392,-56 386,-56 380,-50 380,-44 380,-44 380,-32 380,-32 380,-26 386,-20 392,-20 392,-20 540,-20 540,-20 546,-20 552,-26 552,-32 552,-32 552,-44 552,-44 552,-50 546,-56 540,-56"/>
<text xml:space="preserve" text-anchor="middle" x="466" y="-39.55" font-family="Helvetica,sans-Serif" font-size="11.00">Chess Engine Service (FastAPI)</text>
<text xml:space="preserve" text-anchor="middle" x="466" y="-27.55" font-family="Helvetica,sans-Serif" font-size="11.00">Stockfish · bearer&#45;token auth</text>
</g>
<!-- backend&#45;&gt;engine -->
<g id="edge3" class="edge">
<title>backend&#45;&gt;engine</title>
<path fill="none" stroke="#6b5d45" d="M315.81,-132.23C346.16,-113.4 394.9,-83.14 428.59,-62.23"/>
<polygon fill="#6b5d45" stroke="#6b5d45" points="430.15,-65.37 436.8,-57.12 426.46,-59.43 430.15,-65.37"/>
<text xml:space="preserve" text-anchor="middle" x="439.54" y="-105.95" font-family="Helvetica,sans-Serif" font-size="9.00">HTTP</text>
<text xml:space="preserve" text-anchor="middle" x="439.54" y="-96.2" font-family="Helvetica,sans-Serif" font-size="9.00">/analyze/game · /analyze/position</text>
</g>
<!-- qdrant -->
<g id="node7" class="node">
<title>qdrant</title>
<path fill="#e8f5ee" stroke="#5c8a6b" d="M763.5,-56C763.5,-58.21 720.25,-60 667,-60 613.75,-60 570.5,-58.21 570.5,-56 570.5,-56 570.5,-20 570.5,-20 570.5,-17.79 613.75,-16 667,-16 720.25,-16 763.5,-17.79 763.5,-20 763.5,-20 763.5,-56 763.5,-56"/>
<path fill="none" stroke="#5c8a6b" d="M763.5,-56C763.5,-53.79 720.25,-52 667,-52 613.75,-52 570.5,-53.79 570.5,-56"/>
<text xml:space="preserve" text-anchor="middle" x="667" y="-39.55" font-family="Helvetica,sans-Serif" font-size="11.00">Qdrant Cloud</text>
<text xml:space="preserve" text-anchor="middle" x="667" y="-27.55" font-family="Helvetica,sans-Serif" font-size="11.00">library · moments · game_summaries</text>
</g>
<!-- backend&#45;&gt;qdrant -->
<g id="edge4" class="edge">
<title>backend&#45;&gt;qdrant</title>
<path fill="none" stroke="#6b5d45" d="M356.03,-144.08C400.82,-139.23 460.32,-130.36 511,-114.5 549.57,-102.43 590.61,-82.24 620.91,-65.78"/>
<polygon fill="#6b5d45" stroke="#6b5d45" points="622.36,-68.98 629.43,-61.09 618.98,-62.85 622.36,-68.98"/>
<text xml:space="preserve" text-anchor="middle" x="587.22" y="-105.95" font-family="Helvetica,sans-Serif" font-size="9.00">vector search</text>
<text xml:space="preserve" text-anchor="middle" x="587.22" y="-96.2" font-family="Helvetica,sans-Serif" font-size="9.00">+ upserts</text>
</g>
<!-- gateway -->
<g id="node8" class="node">
<title>gateway</title>
<path fill="#f5eee0" stroke="#8a755c" d="M940.25,-60C940.25,-60 793.75,-60 793.75,-60 787.75,-60 781.75,-54 781.75,-48 781.75,-48 781.75,-28 781.75,-28 781.75,-22 787.75,-16 793.75,-16 793.75,-16 940.25,-16 940.25,-16 946.25,-16 952.25,-22 952.25,-28 952.25,-28 952.25,-48 952.25,-48 952.25,-54 946.25,-60 940.25,-60"/>
<text xml:space="preserve" text-anchor="middle" x="867" y="-45.55" font-family="Helvetica,sans-Serif" font-size="11.00">Vercel AI Gateway</text>
<text xml:space="preserve" text-anchor="middle" x="867" y="-33.55" font-family="Helvetica,sans-Serif" font-size="11.00">LLM: gpt&#45;4.1&#45;mini · embeddings:</text>
<text xml:space="preserve" text-anchor="middle" x="867" y="-21.55" font-family="Helvetica,sans-Serif" font-size="11.00">text&#45;embedding&#45;3&#45;small</text>
</g>
<!-- backend&#45;&gt;gateway -->
<g id="edge5" class="edge">
<title>backend&#45;&gt;gateway</title>
<path fill="none" stroke="#6b5d45" d="M356.15,-149.03C451.74,-146.54 629.97,-135.1 773,-87 789.37,-81.49 806.43,-73.54 821.45,-65.68"/>
<polygon fill="#6b5d45" stroke="#6b5d45" points="823,-68.82 830.15,-61 819.69,-62.65 823,-68.82"/>
<text xml:space="preserve" text-anchor="middle" x="762.96" y="-105.95" font-family="Helvetica,sans-Serif" font-size="9.00">chat + distill +</text>
<text xml:space="preserve" text-anchor="middle" x="762.96" y="-96.2" font-family="Helvetica,sans-Serif" font-size="9.00">embed calls</text>
</g>
<!-- tavily -->
<g id="node9" class="node">
<title>tavily</title>
<path fill="#f5eee0" stroke="#8a755c" d="M1049.88,-56C1049.88,-56 982.12,-56 982.12,-56 976.12,-56 970.12,-50 970.12,-44 970.12,-44 970.12,-32 970.12,-32 970.12,-26 976.12,-20 982.12,-20 982.12,-20 1049.88,-20 1049.88,-20 1055.88,-20 1061.88,-26 1061.88,-32 1061.88,-32 1061.88,-44 1061.88,-44 1061.88,-50 1055.88,-56 1049.88,-56"/>
<text xml:space="preserve" text-anchor="middle" x="1016" y="-39.55" font-family="Helvetica,sans-Serif" font-size="11.00">Tavily</text>
<text xml:space="preserve" text-anchor="middle" x="1016" y="-27.55" font-family="Helvetica,sans-Serif" font-size="11.00">web search API</text>
</g>
<!-- backend&#45;&gt;tavily -->
<g id="edge6" class="edge">
<title>backend&#45;&gt;tavily</title>
<path fill="none" stroke="#6b5d45" d="M356.26,-146.85C453.8,-142.6 638.58,-132.81 795,-114.5 869.28,-105.8 893.37,-118.91 961,-87 972.64,-81.51 983.7,-72.82 992.81,-64.34"/>
<polygon fill="#6b5d45" stroke="#6b5d45" points="995.14,-66.95 999.82,-57.44 990.24,-61.96 995.14,-66.95"/>
<text xml:space="preserve" text-anchor="middle" x="975.67" y="-101.08" font-family="Helvetica,sans-Serif" font-size="9.00">web_search tool</text>
</g>
</g>
</svg>
