<?xml version="1.0" encoding="UTF-8" standalone="no"?>
<!DOCTYPE svg PUBLIC "-//W3C//DTD SVG 1.1//EN"
 "http://www.w3.org/Graphics/SVG/1.1/DTD/svg11.dtd">
<!-- Generated by graphviz version 15.1.0 (20260618.0150)
 -->
<!-- Title: task1_user_workflow Pages: 1 -->
<svg width="1345pt" height="130pt"
 viewBox="0.00 0.00 1345.00 130.00" xmlns="http://www.w3.org/2000/svg" xmlns:xlink="http://www.w3.org/1999/xlink">
<g id="graph0" class="graph" transform="scale(1 1) rotate(0) translate(4 126)">
<title>task1_user_workflow</title>
<polygon fill="white" stroke="none" points="-4,4 -4,-126 1340.5,-126 1340.5,4 -4,4"/>
<!-- play -->
<g id="node1" class="node">
<title>play</title>
<path fill="#f5f0e8" stroke="#8a7a5c" d="M103.75,-36C103.75,-36 12,-36 12,-36 6,-36 0,-30 0,-24 0,-24 0,-12 0,-12 0,-6 6,0 12,0 12,0 103.75,0 103.75,0 109.75,0 115.75,-6 115.75,-12 115.75,-12 115.75,-24 115.75,-24 115.75,-30 109.75,-36 103.75,-36"/>
<text xml:space="preserve" text-anchor="middle" x="57.88" y="-19.55" font-family="Helvetica,sans-Serif" font-size="11.00">Play online game</text>
<text xml:space="preserve" text-anchor="middle" x="57.88" y="-7.55" font-family="Helvetica,sans-Serif" font-size="11.00">(chess.com / lichess)</text>
</g>
<!-- review -->
<g id="node2" class="node">
<title>review</title>
<path fill="#e8eef5" stroke="#5c6f8a" d="M288,-70C288,-70 164.75,-70 164.75,-70 158.75,-70 152.75,-64 152.75,-58 152.75,-58 152.75,-46 152.75,-46 152.75,-40 158.75,-34 164.75,-34 164.75,-34 288,-34 288,-34 294,-34 300,-40 300,-46 300,-46 300,-58 300,-58 300,-64 294,-70 288,-70"/>
<text xml:space="preserve" text-anchor="middle" x="226.38" y="-47.55" font-family="Helvetica,sans-Serif" font-size="11.00">Run engine &#39;Game Review&#39;</text>
</g>
<!-- play&#45;&gt;review -->
<g id="edge1" class="edge">
<title>play&#45;&gt;review</title>
<path fill="none" stroke="#6b5d45" d="M116.17,-29.7C124.29,-31.36 132.76,-33.09 141.25,-34.82"/>
<polygon fill="#6b5d45" stroke="#6b5d45" points="140.4,-38.22 150.9,-36.79 141.8,-31.36 140.4,-38.22"/>
</g>
<!-- evals -->
<g id="node3" class="node">
<title>evals</title>
<path fill="#f5f0e8" stroke="#8a7a5c" d="M500.75,-70C500.75,-70 349,-70 349,-70 343,-70 337,-64 337,-58 337,-58 337,-46 337,-46 337,-40 343,-34 349,-34 349,-34 500.75,-34 500.75,-34 506.75,-34 512.75,-40 512.75,-46 512.75,-46 512.75,-58 512.75,-58 512.75,-64 506.75,-70 500.75,-70"/>
<text xml:space="preserve" text-anchor="middle" x="424.88" y="-53.55" font-family="Helvetica,sans-Serif" font-size="11.00">See engine output:</text>
<text xml:space="preserve" text-anchor="middle" x="424.88" y="-41.55" font-family="Helvetica,sans-Serif" font-size="11.00">&#39;?? 14...Nxe5 −3.2, best was Rf8&#39;</text>
</g>
<!-- review&#45;&gt;evals -->
<g id="edge2" class="edge">
<title>review&#45;&gt;evals</title>
<path fill="none" stroke="#6b5d45" d="M300.27,-52C308.45,-52 316.89,-52 325.33,-52"/>
<polygon fill="#6b5d45" stroke="#6b5d45" points="325.3,-55.5 335.3,-52 325.3,-48.5 325.3,-55.5"/>
</g>
<!-- confused -->
<g id="node4" class="node">
<title>confused</title>
<path fill="#f5e0dd" stroke="#a05648" d="M678.25,-70C678.25,-70 561.75,-70 561.75,-70 555.75,-70 549.75,-64 549.75,-58 549.75,-58 549.75,-46 549.75,-46 549.75,-40 555.75,-34 561.75,-34 561.75,-34 678.25,-34 678.25,-34 684.25,-34 690.25,-40 690.25,-46 690.25,-46 690.25,-58 690.25,-58 690.25,-64 684.25,-70 678.25,-70"/>
<text xml:space="preserve" text-anchor="middle" x="620" y="-53.55" font-family="Helvetica,sans-Serif" font-size="11.00">Can&#39;t translate engine line</text>
<text xml:space="preserve" text-anchor="middle" x="620" y="-41.55" font-family="Helvetica,sans-Serif" font-size="11.00">into a human lesson</text>
</g>
<!-- evals&#45;&gt;confused -->
<g id="edge3" class="edge">
<title>evals&#45;&gt;confused</title>
<path fill="none" stroke="#6b5d45" d="M513.11,-52C521.4,-52 529.79,-52 538.01,-52"/>
<polygon fill="#6b5d45" stroke="#6b5d45" points="538,-55.5 548,-52 538,-48.5 538,-55.5"/>
</g>
<!-- generic -->
<g id="node5" class="node">
<title>generic</title>
<path fill="#f5f0e8" stroke="#8a7a5c" d="M1023,-122C1023,-122 917,-122 917,-122 911,-122 905,-116 905,-110 905,-110 905,-98 905,-98 905,-92 911,-86 917,-86 917,-86 1023,-86 1023,-86 1029,-86 1035,-92 1035,-98 1035,-98 1035,-110 1035,-110 1035,-116 1029,-122 1023,-122"/>
<text xml:space="preserve" text-anchor="middle" x="970" y="-105.55" font-family="Helvetica,sans-Serif" font-size="11.00">Watch generic videos /</text>
<text xml:space="preserve" text-anchor="middle" x="970" y="-93.55" font-family="Helvetica,sans-Serif" font-size="11.00">buy course (Chessable)</text>
</g>
<!-- confused&#45;&gt;generic -->
<g id="edge4" class="edge">
<title>confused&#45;&gt;generic</title>
<path fill="none" stroke="#6b5d45" d="M690.41,-64.04C719.11,-68.89 752.75,-74.41 783.25,-79 819.53,-84.46 859.89,-89.96 893.69,-94.4"/>
<polygon fill="#6b5d45" stroke="#6b5d45" points="893.02,-97.85 903.38,-95.67 893.92,-90.91 893.02,-97.85"/>
<text xml:space="preserve" text-anchor="middle" x="736.75" y="-77.3" font-family="Helvetica,sans-Serif" font-size="9.00">most common</text>
</g>
<!-- coach -->
<g id="node6" class="node">
<title>coach</title>
<path fill="#eee8f5" stroke="#7a5c8a" d="M875,-70C875,-70 795.25,-70 795.25,-70 789.25,-70 783.25,-64 783.25,-58 783.25,-58 783.25,-46 783.25,-46 783.25,-40 789.25,-34 795.25,-34 795.25,-34 875,-34 875,-34 881,-34 887,-40 887,-46 887,-46 887,-58 887,-58 887,-64 881,-70 875,-70"/>
<text xml:space="preserve" text-anchor="middle" x="835.12" y="-47.55" font-family="Helvetica,sans-Serif" font-size="11.00">Hire human coach</text>
</g>
<!-- confused&#45;&gt;coach -->
<g id="edge5" class="edge">
<title>confused&#45;&gt;coach</title>
<path fill="none" stroke="#6b5d45" d="M690.49,-52C716.61,-52 746.13,-52 771.59,-52"/>
<polygon fill="#6b5d45" stroke="#6b5d45" points="771.46,-55.5 781.46,-52 771.46,-48.5 771.46,-55.5"/>
<text xml:space="preserve" text-anchor="middle" x="736.75" y="-53.2" font-family="Helvetica,sans-Serif" font-size="9.00">rare</text>
</g>
<!-- repeat -->
<g id="node8" class="node">
<title>repeat</title>
<path fill="#f5e0dd" stroke="#a05648" stroke-width="2" d="M1324.5,-70C1324.5,-70 1231.25,-70 1231.25,-70 1225.25,-70 1219.25,-64 1219.25,-58 1219.25,-58 1219.25,-46 1219.25,-46 1219.25,-40 1225.25,-34 1231.25,-34 1231.25,-34 1324.5,-34 1324.5,-34 1330.5,-34 1336.5,-40 1336.5,-46 1336.5,-46 1336.5,-58 1336.5,-58 1336.5,-64 1330.5,-70 1324.5,-70"/>
<text xml:space="preserve" text-anchor="middle" x="1277.88" y="-53.55" font-family="Helvetica,sans-Serif" font-size="11.00">Same mistakes recur</text>
<text xml:space="preserve" text-anchor="middle" x="1277.88" y="-41.55" font-family="Helvetica,sans-Serif" font-size="11.00">next game</text>
</g>
<!-- generic&#45;&gt;repeat -->
<g id="edge8" class="edge">
<title>generic&#45;&gt;repeat</title>
<path fill="none" stroke="#6b5d45" d="M1035.21,-99.09C1077.29,-95.22 1133.37,-88.8 1182.25,-79 1190.46,-77.35 1199,-75.35 1207.43,-73.18"/>
<polygon fill="#6b5d45" stroke="#6b5d45" points="1208.2,-76.6 1216.96,-70.64 1206.4,-69.83 1208.2,-76.6"/>
<text xml:space="preserve" text-anchor="middle" x="1117.62" y="-107.98" font-family="Helvetica,sans-Serif" font-size="9.00">advice not tied</text>
<text xml:space="preserve" text-anchor="middle" x="1117.62" y="-98.23" font-family="Helvetica,sans-Serif" font-size="9.00">to own games</text>
</g>
<!-- cost -->
<g id="node7" class="node">
<title>cost</title>
<path fill="#f5e0dd" stroke="#a05648" d="M1170.25,-70C1170.25,-70 1065,-70 1065,-70 1059,-70 1053,-64 1053,-58 1053,-58 1053,-46 1053,-46 1053,-40 1059,-34 1065,-34 1065,-34 1170.25,-34 1170.25,-34 1176.25,-34 1182.25,-40 1182.25,-46 1182.25,-46 1182.25,-58 1182.25,-58 1182.25,-64 1176.25,-70 1170.25,-70"/>
<text xml:space="preserve" text-anchor="middle" x="1117.62" y="-53.55" font-family="Helvetica,sans-Serif" font-size="11.00">Expensive + scheduling</text>
<text xml:space="preserve" text-anchor="middle" x="1117.62" y="-41.55" font-family="Helvetica,sans-Serif" font-size="11.00">friction for a hobby</text>
</g>
<!-- coach&#45;&gt;cost -->
<g id="edge6" class="edge">
<title>coach&#45;&gt;cost</title>
<path fill="none" stroke="#6b5d45" d="M887.25,-52C930.26,-52 992.36,-52 1041.1,-52"/>
<polygon fill="#6b5d45" stroke="#6b5d45" points="1041.04,-55.5 1051.04,-52 1041.04,-48.5 1041.04,-55.5"/>
</g>
<!-- cost&#45;&gt;repeat -->
<g id="edge7" class="edge">
<title>cost&#45;&gt;repeat</title>
<path fill="none" stroke="#6b5d45" d="M1182.54,-52C1190.58,-52 1198.85,-52 1206.98,-52"/>
<polygon fill="#6b5d45" stroke="#6b5d45" points="1206.84,-55.5 1216.84,-52 1206.84,-48.5 1206.84,-55.5"/>
</g>
<!-- repeat&#45;&gt;play -->
<g id="edge9" class="edge">
<title>repeat&#45;&gt;play</title>
<path fill="none" stroke="#6b5d45" stroke-dasharray="5,2" d="M1235.51,-33.02C1204.12,-20.35 1159.54,-6 1118.62,-6 225.38,-6 225.38,-6 225.38,-6 193.12,-6 157.45,-8.27 127.42,-10.83"/>
<polygon fill="#6b5d45" stroke="#6b5d45" points="127.37,-7.32 117.72,-11.69 127.99,-14.29 127.37,-7.32"/>
<text xml:space="preserve" text-anchor="middle" x="620" y="-7.2" font-family="Helvetica,sans-Serif" font-size="9.00">next game</text>
</g>
</g>
</svg>
